<svg xmlns="http://www.w3.org/2000/svg" viewBox="0 0 100 94"><defs><clipPath id="a"><path fill="none" d="M0 0h100v94H0z"/></clipPath></defs><title>code_icon</title><g clip-path="url(#a)" fill="none" stroke="#fff" stroke-miterlimit="10" stroke-width="4" opacity=".67"><path d="M38 88a3.9 3.9 0 0 1 3.78-4h28.44A3.9 3.9 0 0 1 74 88v4H38zM36 2h60a2 2 0 0 1 2 2v70a2 2 0 0 1-2 2H36"/><path d="M36 10h52a2 2 0 0 1 2 2v48a2 2 0 0 1-2 2H36"/><rect x="2" y="2" width="28" height="90" rx="2" ry="2"/><path d="M48 84v-8m16 8v-8"/></g></svg>