<svg xmlns="http://www.w3.org/2000/svg" viewBox="0 0 100 94"><defs><style>.cls-1,.cls-5{fill:none}.cls-2{opacity:.67}.cls-2,.cls-4{isolation:isolate}.cls-3{clip-path:url(#clip-path)}.cls-5{stroke:#fff;stroke-miterlimit:10;stroke-width:4px}.cls-6{clip-path:url(#clip-path-4)}.cls-7{fill:#fff}</style><clipPath id="clip-path"><path class="cls-1" d="M0 0h100v94H0z"/></clipPath><clipPath id="clip-path-4"><circle class="cls-1" cx="16" cy="80" r="4"/></clipPath></defs><g id="Слой_2" data-name="Слой 2"><g class="cls-2 cls-3 cls-4 cls-3" id="Слой_1-2" data-name="Слой 1"><g class="cls-3"><path class="cls-5" d="M38 88a3.9 3.9 0 0 1 3.78-4h28.44A3.9 3.9 0 0 1 74 88v4H38zM36 2h60a2 2 0 0 1 2 2v70a2 2 0 0 1-2 2H36"/><path class="cls-5" d="M36 10h52a2 2 0 0 1 2 2v48a2 2 0 0 1-2 2H36"/></g><path class="cls-6 cls-3 cls-7" d="M2 66h28v28H2z"/><g class="cls-3"><rect class="cls-5" x="2" y="2" width="28" height="90" rx="2" ry="2"/><path class="cls-5" d="M48 84v-8m16 8v-8"/></g></g></g></svg>