<svg xmlns="http://www.w3.org/2000/svg" viewBox="0 0 100 92"><title>cowork_icon</title><path fill="none" d="M0 0h100v92H0z"/><circle cx="34" cy="12" r="10" style="isolation:isolate" fill="#fff" stroke="#fff" stroke-miterlimit="10" stroke-width="4" opacity=".86"/><circle cx="50" cy="50" r="12" style="isolation:isolate" fill="#fff" stroke="#fff" stroke-miterlimit="10" stroke-width="4" opacity=".86"/><path d="M50 62a16 16 0 0 0-16 16v9s4 3 16 3 16-3 16-3v-9a16 16 0 0 0-16-16z" style="isolation:isolate" fill="#fff" stroke="#fff" stroke-miterlimit="10" stroke-width="4" opacity=".86"/><circle cx="82" cy="38" r="12" style="isolation:isolate" fill="#fff" stroke="#fff" stroke-miterlimit="10" stroke-width="4" opacity=".86"/><path d="M82 50a16 16 0 0 0-16 16v9s4 3 16 3 16-3 16-3v-9a16 16 0 0 0-16-16zM30 38a12 12 0 0 0-6.77-10.79L48 37.6V36a13.91 13.91 0 0 0-13.82-14H34a13.75 13.75 0 0 0-10.8 5.2A12 12 0 1 0 30 38z" style="isolation:isolate" fill="#fff" stroke="#fff" stroke-miterlimit="10" stroke-width="4" opacity=".86"/><path d="M34 66a16 16 0 0 0-32 0v9s4 3 16 3 16-3 16-3z" style="isolation:isolate" fill="#fff" stroke="#fff" stroke-miterlimit="10" stroke-width="4" opacity=".86"/><circle cx="65.6" cy="12" r="10" style="isolation:isolate" fill="#fff" stroke="#fff" stroke-miterlimit="10" stroke-width="4" opacity=".86"/><path d="M65.6 22h-.18A13.91 13.91 0 0 0 51.6 36v1.6l24.8-10.4A13.76 13.76 0 0 0 65.6 22z" style="isolation:isolate" fill="#fff" stroke="#fff" stroke-miterlimit="10" stroke-width="4" opacity=".86"/></svg>