<svg xmlns="http://www.w3.org/2000/svg" viewBox="0 0 220 220"><defs><clipPath id="a"><circle cx="110" cy="110" r="100" fill="none"/></clipPath></defs><title>cup.svg</title><g clip-path="url(#a)"><path d="M0 0h220v220H0z" fill="#fff"/></g><path d="M163.13 116a19.27 19.27 0 0 1-19 19.57h-6c-1 0-2 1.52-2 2.53v14.68a1.34 1.34 0 0 1-1.52 1.52H76.89c-1 0-1.52-.34-1.52-1.52V76.49h60.75V87c0 1 1.18 1.35 2 1.35H144c10.8 0 19.07 9.11 19.07 20.08zm-19.07-31.07h-4.56v-10.8c0-1-.34-1-1.35-1h-65c-1 0-1.18 0-1.18 1v78.64a4.61 4.61 0 0 0 4.89 4.89h57.71a4.61 4.61 0 0 0 4.89-4.89V139.1h4.05a22.83 22.83 0 0 0 22.95-23.1v-7.76c.04-12.68-9.75-23.31-22.4-23.31z" fill="#d45035"/><path d="M154.69 115.81a11.5 11.5 0 0 1-11.14 11.31h-2.36V96.74h2.36c5.91 0 11.14 5.57 11.14 11.64zm-11.14-22.44h-4.39c-1 0-1.35 1.35-1.35 2.36v32.74c0 1 .34 2.19 1.35 2.19h4.39c7.76 0 14.51-6.92 14.51-14.68v-7.43c0-8.09-6.75-15.18-14.51-15.18zm-25.99 21.94l-12.15 12.32-12.15-12.32a8.07 8.07 0 0 1 .34-11 3.7 3.7 0 0 1 2.87-1.18c2.19 0 5.23 1.52 7.93 3.88a1.63 1.63 0 0 0 2.3.06l.06-.06c2.53-2.36 5.57-3.88 7.93-3.88a3.47 3.47 0 0 1 2.87 1.18 7.9 7.9 0 0 1 0 11zm-3-15.52a14.37 14.37 0 0 0-8.94 3.88c-3-2.36-6.24-3.88-8.94-3.88a8.13 8.13 0 0 0-5.4 2.19 11.15 11.15 0 0 0-.17 15.69l13.33 13.67a1.63 1.63 0 0 0 2.3.06l.06-.06 13.33-13.67A11.15 11.15 0 0 0 120 102a7.39 7.39 0 0 0-5.43-2.2zM97.31 69.74A1.59 1.59 0 0 0 99 68.06V57.93a1.69 1.69 0 0 0-3.37 0v10.13a1.69 1.69 0 0 0 1.68 1.68zm10.13-5.06a1.59 1.59 0 0 0 1.69-1.68V52.87a1.69 1.69 0 1 0-3.37 0V63a1.69 1.69 0 0 0 1.68 1.68zm10.12 3.38a1.59 1.59 0 0 0 1.69-1.69V56.24a1.69 1.69 0 1 0-3.37 0v10.13a1.69 1.69 0 0 0 1.68 1.69z" fill="#d45035"/></svg>