<svg xmlns="http://www.w3.org/2000/svg" viewBox="0 0 103.44 105.54"><title>events__icon</title><path d="M77.85 27.7a2.92 2.92 0 0 1-.49 0 2.94 2.94 0 1 1 .49 0zM62 46.27a2.58 2.58 0 0 1-5.15 0 2.78 2.78 0 0 1 .1-.72 2.58 2.58 0 0 1 1.88-1.77 2.79 2.79 0 0 1 .6-.07 2.51 2.51 0 0 1 .48 0A2.55 2.55 0 0 1 62 46.27zM47.14 36a2.6 2.6 0 0 1-1.26-.32 2.56 2.56 0 1 1 3.84-2.2 2.5 2.5 0 0 1-.11.73A2.58 2.58 0 0 1 47.74 36a2.64 2.64 0 0 1-.6 0zm-19 10.25a2.58 2.58 0 1 1-2.6-2.56 2.54 2.54 0 0 1 1.25.32 2.57 2.57 0 0 1 1.33 2.2zM77.85 20a5.15 5.15 0 0 0-5.16 5.12A5 5 0 0 0 73.6 28L61.67 41.68a5.09 5.09 0 0 0-2.29-.54 5.15 5.15 0 0 0-2.5.65l-5.37-5.62a5.09 5.09 0 0 0 .79-2.71 5.15 5.15 0 1 0-10.1 1.45l-13 7.72a5.11 5.11 0 1 0 1.54 3.64 4.88 4.88 0 0 0-.21-1.45l13-7.72a5.16 5.16 0 0 0 6.11.83L55 43.55a5.07 5.07 0 0 0-.78 2.72 5.15 5.15 0 0 0 10.31 0 5.07 5.07 0 0 0-.91-2.91l11.92-13.64A5.13 5.13 0 1 0 77.85 20zM98.3 0H5.15a5.15 5.15 0 1 0 0 10.29h1.2v50.92a6.72 6.72 0 0 0 6.72 6.69h36.84v14.69l-30.36 15.3a4.13 4.13 0 1 0 1.86 3.45V101l28.5-14.37v11a4.16 4.16 0 1 0 3.62 0v-11L82 101v.34a4.16 4.16 0 1 0 4.18-4.14 4.16 4.16 0 0 0-2.3.69l-30.34-15.3V67.9h36.83a6.72 6.72 0 0 0 6.73-6.69V10.29h1.2A5.15 5.15 0 0 0 98.3 0zm-7.93 61.73h-77.3a.53.53 0 0 1-.52-.52V10.29h78.33v50.92a.53.53 0 0 1-.51.52z" fill="#fff"/></svg>