<svg xmlns="http://www.w3.org/2000/svg" viewBox="0 0 116.01 77.95"><title>hat</title><path d="M113.43 51.22a2.42 2.42 0 0 0-2.26 2.57 19.35 19.35 0 0 1-14.5 18.69V61.89a2.29 2.29 0 0 0 0-1.68V38.05a38.67 38.67 0 0 0-77.33 1.24v20.9a2.29 2.29 0 0 0 0 1.67v10.62a19.35 19.35 0 0 1-14.5-18.69 2.42 2.42 0 1 0-4.83 0A24.19 24.19 0 0 0 24.18 78h67.66A24.19 24.19 0 0 0 116 53.79a2.42 2.42 0 0 0-2.57-2.57zM58 5.46a33.83 33.83 0 0 1 33.85 33.83v19.33H24.18V39.29A33.83 33.83 0 0 1 58 5.46zM24.18 73.12v-9.67h67.67v9.67z" fill="#d45035"/></svg>