<svg xmlns="http://www.w3.org/2000/svg" viewBox="0 0 177.45 20.2"><title>header-logo</title><path d="M61.9.61L55 20h4.7l1-3.29h7.5L69.36 20h4.7L66.9.61zm.1 12.33l2.49-7.85L67 12.94zM0 4.12h4v12H0v3.69h12.44V16.1H8.71V4.12h3.73V.43H0v3.69zM40.79 0H40a7.76 7.76 0 0 0-5.88 2.24A8.1 8.1 0 0 0 28 0h-.83c-5 0-8 3.07-8 8.54v11.25h4.42v-11C23.64 5.85 25 4 27.21 4H28c2.35 0 3.79 1.85 3.79 4.81v11h4.56v-11c0-3 1.4-4.82 3.65-4.82h.83c2.35 0 3.79 1.85 3.79 4.81v11H49V8.56C49 3.09 45.9 0 40.79 0zm62.47 9.02H90.6v3.46h8.14v3.34H84.39V4.72h18.87V.61H79.87v19.35h23.4l-.01-.01V9.02zm70.04-9v15.66h-8.52V.02h-4.15v19.81h16.82V.02h-4.15zM154.35 7.2c0-4-2.9-6.8-7.6-6.8h-13v19.38h4.7v-5.47h7.91l2.93 5.47h5.36l-3.51-6.58a6.63 6.63 0 0 0 3.21-6zm-5 .09c0 1.91-1 3-2.65 3h-8.3V4.44h8.3a2.54 2.54 0 0 1 2.65 2.85zM122.75.43v11c0 3-1.36 4.81-3.57 4.81h-.83c-2.35 0-3.79-1.85-3.79-4.81v-11h-4.42v11.23c0 5.48 3.1 8.54 8.21 8.54h.83c5 0 8-3.07 8-8.54V.43z"/></svg>