<svg xmlns="http://www.w3.org/2000/svg" viewBox="0 0 116 116"><defs><style>.cls-1,.cls-2,.cls-8{fill:none}.cls-2{clip-rule:evenodd}.cls-3{clip-path:url(#clip-path)}.cls-4{fill:#fff}.cls-5{clip-path:url(#clip-path-2)}.cls-6{clip-path:url(#clip-path-3)}.cls-7{clip-path:url(#clip-path-4)}.cls-8{stroke:#fff;stroke-miterlimit:10;stroke-width:4px}</style><clipPath id="clip-path"><rect class="cls-1" x="70.3" y="38.67" width="7.03" height="7.03" rx="1.76" ry="1.76"/></clipPath><clipPath id="clip-path-2"><path class="cls-2" d="M58 48.12a9.81 9.81 0 0 0-5.11 1.46 4.89 4.89 0 0 1 1.46-.24 5 5 0 1 1-5 5 5 5 0 0 1 .24-1.46A9.77 9.77 0 0 0 48.12 58 9.88 9.88 0 1 0 58 48.12z"/></clipPath><clipPath id="clip-path-3"><path class="cls-2" d="M58 42.19A15.81 15.81 0 1 0 73.81 58 15.83 15.83 0 0 0 58 42.19zm0 4A11.86 11.86 0 1 1 46.14 58 11.86 11.86 0 0 1 58 46.14z"/></clipPath><clipPath id="clip-path-4"><path class="cls-2" d="M80.3 49.89H67a12.16 12.16 0 1 1-18.09 0H35.7v-8.36a5.84 5.84 0 0 1 5.83-5.83h32.94a5.83 5.83 0 0 1 5.83 5.83zm-5.83-18.24H41.53a9.88 9.88 0 0 0-9.88 9.88v32.94a9.88 9.88 0 0 0 9.88 9.88h32.94a9.88 9.88 0 0 0 9.88-9.88V41.53a9.88 9.88 0 0 0-9.88-9.88z"/></clipPath></defs><g id="Слой_2" data-name="Слой 2"><g id="Слой_1-2" data-name="Слой 1"><path class="cls-3 cls-4" d="M60.3 28.67h27.03V55.7H60.3z"/><path class="cls-5 cls-4" d="M38.12 38.12h39.76v39.76H38.12z"/><path class="cls-6 cls-4" d="M32.19 32.19h51.62v51.62H32.19z"/><path class="cls-7 cls-4" d="M21.65 21.65h72.71v72.71H21.65z"/><circle class="cls-8" cx="58" cy="58" r="56"/></g></g></svg>