<svg xmlns="http://www.w3.org/2000/svg" viewBox="0 0 116 116"><title>instagram_icon</title><rect x="70.3" y="38.67" width="7.03" height="7.03" rx="1.76" ry="1.76" fill="#fff"/><path d="M58 48.12a9.81 9.81 0 0 0-5.11 1.46 4.89 4.89 0 0 1 1.46-.24 5.09 5.09 0 1 1-4.76 3.54A9.77 9.77 0 0 0 48.12 58 9.88 9.88 0 1 0 58 48.12z" fill="#fff"/><path d="M58 42.19A15.81 15.81 0 1 0 73.81 58 15.83 15.83 0 0 0 58 42.19zm0 4A11.86 11.86 0 1 1 46.14 58 11.86 11.86 0 0 1 58 46.14z" fill="#fff"/><path d="M80.3 49.89H67a12.16 12.16 0 1 1-18.09 0H35.7v-8.36a5.84 5.84 0 0 1 5.83-5.83h32.94a5.83 5.83 0 0 1 5.83 5.83zm-5.83-18.24H41.53a9.88 9.88 0 0 0-9.88 9.88v32.94a9.88 9.88 0 0 0 9.88 9.88h32.94a9.88 9.88 0 0 0 9.88-9.88V41.53a9.88 9.88 0 0 0-9.88-9.88z" fill="#fff"/><circle cx="58" cy="58" r="56" fill="none" stroke="#fff" stroke-miterlimit="10" stroke-width="4"/></svg>