<svg xmlns="http://www.w3.org/2000/svg" viewBox="0 0 220 220"><defs><style>.cls-1,.cls-2,.cls-6,.cls-7{fill:none}.cls-2{clip-rule:evenodd}.cls-3{clip-path:url(#clip-path)}.cls-4{fill:#fff}.cls-5{clip-path:url(#clip-path-2)}.cls-6,.cls-7{stroke:#d45035;stroke-miterlimit:10}.cls-6{stroke-width:8px}.cls-7{stroke-width:4px}.cls-8{clip-path:url(#clip-path-3)}.cls-9{fill:#d45035}</style><clipPath id="clip-path"><circle class="cls-1" cx="110" cy="110" r="100"/></clipPath><clipPath id="clip-path-2"><path class="cls-2" d="M140.92 154.75a5.36 5.36 0 0 0-5.36-5.36h-26.81a5.36 5.36 0 0 0-5.36 5.36v2.68h37.54zm-61.54-29.36h85.54v56H79.38z"/></clipPath><clipPath id="clip-path-3"><circle class="cls-1" cx="144.93" cy="108.47" r="5.08"/></clipPath></defs><g id="Слой_2" data-name="Слой 2"><g id="Слой_1-2" data-name="Слой 1"><path class="cls-3 cls-4" d="M0 0h220v220H0z"/><path class="cls-5 cls-6" d="M140.92 154.75a5.36 5.36 0 0 0-5.36-5.36h-26.81a5.36 5.36 0 0 0-5.36 5.36v2.68h37.54z"/><path class="cls-7" d="M90.29 83.88v-10.8a7.08 7.08 0 1 0-14.15 0v10.79C67.92 87.63 62 97.45 62 106.69c0 0 4.51 5.31 21.23 5.31s21.23-5.31 21.23-5.31c0-9.24-5.92-19.06-14.17-22.81z"/><path class="cls-7" d="M124.17 147.43l22.41-39.28-27.97-31.54-28.7 2.24"/><path class="cls-8 cls-9" d="M129.85 93.39h30.16v30.16h-30.16z"/></g></g></svg>