<svg xmlns="http://www.w3.org/2000/svg" viewBox="0 0 200 200"><title>lamp_1</title><circle cx="100" cy="100" r="100" fill="#fff"/><path d="M130.92 144.75a5.36 5.36 0 0 0-5.36-5.36H98.75a5.36 5.36 0 0 0-5.36 5.36v2.68h37.54z" fill="none" stroke="#d45035" stroke-miterlimit="10" stroke-width="8"/><path d="M80.29 73.88v-10.8a7.08 7.08 0 1 0-14.15-.53v11.32C57.92 77.63 52 87.45 52 96.69c0 0 4.51 5.31 21.23 5.31s21.23-5.31 21.23-5.31c0-9.24-5.92-19.06-14.17-22.81z" fill="none" stroke="#d45035" stroke-miterlimit="10" stroke-width="4"/><path d="M114.17 137.43l22.41-39.28-28-31.54-28.7 2.24" fill="none" stroke="#d45035" stroke-miterlimit="10" stroke-width="4"/><circle cx="134.93" cy="98.47" r="5.08" fill="#d45035"/></svg>