<svg xmlns="http://www.w3.org/2000/svg" viewBox="0 0 220 220"><defs><style>.cls-1,.cls-2,.cls-7{fill:none}.cls-2{clip-rule:evenodd}.cls-3{clip-path:url(#clip-path)}.cls-4{fill:#fff}.cls-5{clip-path:url(#clip-path-2)}.cls-6{fill:#d45035}.cls-7{stroke:#d45035;stroke-miterlimit:10;stroke-width:4px}.cls-8{clip-path:url(#clip-path-3)}</style><clipPath id="clip-path"><circle class="cls-1" cx="110" cy="110" r="100"/></clipPath><clipPath id="clip-path-2"><path class="cls-2" d="M89.74 116.82c-.57 16.31-18.69 16-23.19 16.18 0 0 7.75 4.52 14.73 4.2-2.76 5-11.68 10.41-11.68 10.41 9.91 0 32-2.1 32-20.93l-5.22-10.85z"/></clipPath><clipPath id="clip-path-3"><path class="cls-2" d="M120.46 93.84S94.4 97.11 103.1 128.3a109.63 109.63 0 0 0-13.36-11.48s-5.61-25.91 18.43-31a49 49 0 0 0 12.29 8.02z"/></clipPath></defs><g id="Слой_2" data-name="Слой 2"><g id="Слой_1-2" data-name="Слой 1"><path class="cls-3 cls-4" d="M0 0h220v220H0z"/><path class="cls-5 cls-6" d="M56.55 105.82h55.08v51.78H56.55z"/><path class="cls-7" d="M141.6 140.53s-7.2.55-7.2-7.2c0-4.85 5.63-7.33 10.8-7.33 4.28 0 10.8 1.35 10.8 10.8 0 12.83-11.7 14.53-15.53 14.53s-16.75-1.93-16.75-18c0-16.78 25.07-21.73 25.07-21.73L108.9 91.18 87.6 72c-7.84 0-17.87 4.45-17.87 16.52A22.92 22.92 0 0 0 77 105.25l18.71 11.39L127 145.27"/><path class="cls-8 cls-6" d="M79.17 75.83h51.29v62.47H79.17z"/></g></g></svg>