<svg xmlns="http://www.w3.org/2000/svg" viewBox="0 0 380 43.18"><title>logo-big</title><path fill="#fff" d="M0 8.78h8.6v25.66H0v7.9h26.64v-7.9h-7.98V8.78h8V.88H0v7.9zm132.61-7.53l-14.8 41.45h10.06l2.25-7h16.11l2.37 7h10.06L143.27 1.25zm.12 26.41l5.33-16.82 5.5 16.82zM87.34 0h-1.78C80.21 0 75.92 1.66 73 4.79 70 1.66 65.54 0 60 0h-1.73C47.61 0 41.16 6.57 41.16 18.29v24h9.47V18.88c0-6.39 2.9-10.3 7.64-10.3H60c5 0 8.11 4 8.11 10.3v23.45h9.77V18.88c0-6.39 2.9-10.3 7.64-10.3h1.78c5 0 8.11 4 8.11 10.3v23.45h9.51v-24C104.92 6.57 98.29 0 87.34 0zm283.78.09v33.45h-18.26V.09H344v42.33l36 .02V.09h-8.88zm-40.61 15.36c0-8.58-6.22-14.57-16.28-14.57H286.4v41.45h10.06V30.61h16.94l6.27 11.72h11.49l-7.52-14.09c4.36-2.61 6.87-7.11 6.87-12.79zM314.23 22h-17.76V9.47h17.76c3.55 0 5.68 2.31 5.68 6.1 0 4.09-2.19 6.43-5.68 6.43zm-51.38 2.33c0 6.39-2.9 10.3-7.64 10.3h-1.78c-5 0-8.11-4-8.11-10.3V.88h-9.47v24c0 11.72 6.63 18.3 17.58 18.3h1.78c10.66 0 17.11-6.57 17.11-18.3v-24h-9.47zM171 42.7h50.12V19.32H194v7.4h17.44v7.15H180.7v-23.8h40.42V1.25H171V42.7z"/></svg>