<svg xmlns="http://www.w3.org/2000/svg" viewBox="0 0 200 200"><title>people</title><circle cx="100" cy="100" r="100" fill="#fff"/><circle cx="98.47" cy="117.8" r="11.12" fill="none" stroke="#d45035" stroke-miterlimit="10" stroke-width="4"/><path d="M113.29 143.74a14.83 14.83 0 0 0-29.65 0v8.34s3.71 2.78 14.82 2.78 14.82-2.78 14.82-2.78z" fill="none" stroke="#d45035" stroke-miterlimit="10" stroke-width="4"/><circle cx="128.11" cy="106.68" r="11.12" fill="none" stroke="#d45035" stroke-miterlimit="10" stroke-width="4"/><path d="M142.94 132.62a14.83 14.83 0 0 0-29.65 0V141s3.71 2.78 14.82 2.78 14.83-2.78 14.83-2.78z" fill="none" stroke="#d45035" stroke-miterlimit="10" stroke-width="4"/><circle cx="68.82" cy="106.68" r="11.12" fill="none" stroke="#d45035" stroke-miterlimit="10" stroke-width="4"/><path d="M83.65 132.62a14.83 14.83 0 0 0-29.65 0V141s3.71 2.78 14.82 2.78S83.65 141 83.65 141zm41.9-82.37a12.59 12.59 0 0 0-19.92-7.42 16.53 16.53 0 0 0-31.16 7.68A13.43 13.43 0 0 0 76 77.28h.37a13.38 13.38 0 0 0 24.89 3.85A11.55 11.55 0 0 0 121.8 75a12.8 12.8 0 0 0 2.46.24 12.51 12.51 0 0 0 1.29-24.94z" fill="none" stroke="#d45035" stroke-miterlimit="10" stroke-width="4"/></svg>