<svg xmlns="http://www.w3.org/2000/svg" viewBox="0 0 100 92"><defs><clipPath id="a"><path fill="none" d="M0 0h100v92H0z"/></clipPath><clipPath id="b"><path fill="none" d="M22 0h24v24H22z"/></clipPath><clipPath id="c"><path fill="none" d="M36 36h28v28H36z"/></clipPath><clipPath id="d"><path fill="none" d="M32 60h36v32H32z"/></clipPath><clipPath id="e"><path fill="none" d="M68 24h28v28H68z"/></clipPath><clipPath id="f"><path fill="none" d="M64 48h36v32H64z"/></clipPath><clipPath id="g"><path fill="none" d="M4 24h28v28H4z"/></clipPath><clipPath id="h"><path fill="none" d="M0 48h36v32H0z"/></clipPath><clipPath id="i"><path fill="none" d="M20 20h32v20H20z"/></clipPath><clipPath id="j"><path fill="none" d="M52 0h26v24H52z"/></clipPath><clipPath id="k"><path fill="none" d="M48 20h32v20H48z"/></clipPath></defs><title>people_icon</title><g clip-path="url(#a)" style="isolation:isolate" opacity=".672"><g clip-path="url(#b)" style="isolation:isolate" opacity=".863"><circle cx="34" cy="12" r="10" fill="none" stroke="#fff" stroke-miterlimit="10" stroke-width="4"/></g><g clip-path="url(#c)" style="isolation:isolate" opacity=".863"><circle cx="50" cy="50" r="12" fill="none" stroke="#fff" stroke-miterlimit="10" stroke-width="4"/></g><g clip-path="url(#d)" style="isolation:isolate" opacity=".863"><path d="M66 78a16 16 0 0 0-32 0v9s4 3 16 3 16-3 16-3z" fill="none" stroke="#fff" stroke-miterlimit="10" stroke-width="4"/></g><g clip-path="url(#e)" style="isolation:isolate" opacity=".863"><circle cx="82" cy="38" r="12" fill="none" stroke="#fff" stroke-miterlimit="10" stroke-width="4"/></g><g clip-path="url(#f)" style="isolation:isolate" opacity=".863"><path d="M98 66a16 16 0 0 0-32 0v9s4 3 16 3 16-3 16-3z" fill="none" stroke="#fff" stroke-miterlimit="10" stroke-width="4"/></g><g clip-path="url(#g)" style="isolation:isolate" opacity=".863"><circle cx="18" cy="38" r="12" fill="none" stroke="#fff" stroke-miterlimit="10" stroke-width="4"/></g><g clip-path="url(#h)" style="isolation:isolate" opacity=".863"><path d="M34 66a16 16 0 0 0-32 0v9s4 3 16 3 16-3 16-3z" fill="none" stroke="#fff" stroke-miterlimit="10" stroke-width="4"/></g><g clip-path="url(#i)" style="isolation:isolate" opacity=".863"><path d="M48 37.6V36a13.91 13.91 0 0 0-14-14 13.75 13.75 0 0 0-10.8 5.2" fill="none" stroke="#fff" stroke-miterlimit="10" stroke-width="4"/></g><g clip-path="url(#j)" style="isolation:isolate" opacity=".863"><circle cx="65.6" cy="12" r="10" fill="none" stroke="#fff" stroke-miterlimit="10" stroke-width="4"/></g><g clip-path="url(#k)" style="isolation:isolate" opacity=".863"><path d="M51.6 37.6V36a13.91 13.91 0 0 1 14-14 13.76 13.76 0 0 1 10.8 5.2" fill="none" stroke="#fff" stroke-miterlimit="10" stroke-width="4"/></g></g></svg>