<svg xmlns="http://www.w3.org/2000/svg" viewBox="0 0 17.48 17.48"><path d="M12.52 11l5 5L16 17.48l-5-5v-.8l-.28-.28a6.23 6.23 0 0 1-4.2 1.6 6.32 6.32 0 0 1-4.62-1.89A6.21 6.21 0 0 1 0 6.52 6.29 6.29 0 0 1 1.9 1.9 6.28 6.28 0 0 1 6.52 0a6.21 6.21 0 0 1 4.59 1.9A6.33 6.33 0 0 1 13 6.52a6.22 6.22 0 0 1-1.55 4.22l.28.28zM3.33 9.7A4.34 4.34 0 0 0 6.52 11 4.34 4.34 0 0 0 9.7 9.7 4.34 4.34 0 0 0 11 6.52a4.34 4.34 0 0 0-1.3-3.19A4.34 4.34 0 0 0 6.52 2a4.34 4.34 0 0 0-3.19 1.33A4.34 4.34 0 0 0 2 6.52 4.34 4.34 0 0 0 3.33 9.7z" data-name="1stScreen"/></svg>