<svg xmlns="http://www.w3.org/2000/svg" viewBox="0 0 17.52 17.48"><title>search_icon</title><path d="M12.52 11h-.79l-.28-.28A6.22 6.22 0 0 0 13 6.52a6.33 6.33 0 0 0-1.89-4.62A6.21 6.21 0 0 0 6.52 0 6.28 6.28 0 0 0 1.9 1.9 6.29 6.29 0 0 0 0 6.52a6.21 6.21 0 0 0 1.9 4.59A6.32 6.32 0 0 0 6.52 13a6.23 6.23 0 0 0 4.2-1.6l.28.28v.8l5 5L17.52 16zM9.7 9.7A4.34 4.34 0 0 1 6.52 11a4.34 4.34 0 0 1-3.19-1.3A4.34 4.34 0 0 1 2 6.52a4.34 4.34 0 0 1 1.33-3.19A4.34 4.34 0 0 1 6.52 2 4.34 4.34 0 0 1 9.7 3.33 4.34 4.34 0 0 1 11 6.52 4.34 4.34 0 0 1 9.7 9.7z"/></svg>