<svg xmlns="http://www.w3.org/2000/svg" viewBox="0 0 38 36.61"><defs><style>.cls-1{fill:none;stroke:#d45035;stroke-miterlimit:10;stroke-width:2px}</style></defs><g id="Слой_2" data-name="Слой 2"><path class="cls-1" d="M37 14.13a.9.9 0 0 0-.76-.62l-11.66-1.24-4.76-10.78a.93.93 0 0 0-1.64 0l-4.76 10.78L1.81 13.5a.9.9 0 0 0-.76.62.91.91 0 0 0 .25 1L10 23 7.55 34.52a.91.91 0 0 0 .35.92.89.89 0 0 0 1 .05L19 29.6l10.12 5.89a.89.89 0 0 0 1-.05.91.91 0 0 0 .35-.92L28 23l8.68-7.9a.91.91 0 0 0 .32-.97z" id="Слой_1-2" data-name="Слой 1"/></g></svg>