<svg xmlns="http://www.w3.org/2000/svg" viewBox="0 0 56 54.61"><defs><style>.cls-1{fill:none;clip-rule:evenodd}.cls-2{clip-path:url(#clip-path)}.cls-3{fill:#d45035}</style><clipPath id="clip-path"><path class="cls-1" d="M46 23.13a.9.9 0 0 0-.76-.62l-11.66-1.24-4.76-10.78a.93.93 0 0 0-1.64 0l-4.76 10.78-11.61 1.23a.9.9 0 0 0-.76.62.91.91 0 0 0 .25 1L19 32l-2.45 11.52a.91.91 0 0 0 .35.92.89.89 0 0 0 1 .05L28 38.6l10.12 5.89a.89.89 0 0 0 1-.05.91.91 0 0 0 .35-.92L37 32l8.68-7.9a.91.91 0 0 0 .32-.97z"/></clipPath></defs><g id="Слой_2" data-name="Слой 2"><path class="cls-2 cls-3" d="M0 0h56v54.61H0z" id="Слой_1-2" data-name="Слой 1"/></g></svg>