<svg xmlns="http://www.w3.org/2000/svg" viewBox="0 0 51.08 50"><defs><style>.cls-1{fill:none;clip-rule:evenodd}.cls-2{clip-path:url(#clip-path)}.cls-3{fill:#fff}</style><clipPath id="clip-path"><path class="cls-1" d="M40.35 12.18l-2.79-1.9a1.7 1.7 0 0 0-2.34.45L21.55 30.89l-6.28-6.28a1.7 1.7 0 0 0-2.38 0L10.49 27a1.69 1.69 0 0 0 0 2.39L20.15 39a3.29 3.29 0 0 0 2.16 1 2.59 2.59 0 0 0 2-1.2L40.8 14.53a1.69 1.69 0 0 0-.45-2.35z"/></clipPath></defs><title>tick_white</title><g id="Слой_2" data-name="Слой 2"><g class="cls-2" id="Слой_1-2" data-name="Слой 1"><path class="cls-3" d="M0 0h51.08v50H0z"/></g></g></svg>