<svg xmlns="http://www.w3.org/2000/svg" viewBox="0 0 116 116"><defs><style>.cls-1,.cls-4{fill:none}.cls-1{clip-rule:evenodd}.cls-2{clip-path:url(#clip-path)}.cls-3{fill:#fff}.cls-4{stroke:#fff;stroke-miterlimit:10;stroke-width:4px}</style><clipPath id="clip-path"><path class="cls-1" d="M90.94 40.77a21.83 21.83 0 0 1-6.92 2A13.42 13.42 0 0 0 89.46 36a22.1 22.1 0 0 1-7.66 3 12.78 12.78 0 0 0-9.14-4.05 12.28 12.28 0 0 0-12.11 12.41 9.73 9.73 0 0 0 .25 2.79 33.51 33.51 0 0 1-25-12.92 11.09 11.09 0 0 0-1.73 6.33 12.81 12.81 0 0 0 5.44 10.39 17.18 17.18 0 0 1-5.44-1.52v.25a12.22 12.22 0 0 0 9.64 12.16 12.23 12.23 0 0 1-3.21.51 6.68 6.68 0 0 1-2.22-.25 11.75 11.75 0 0 0 11.36 8.62A24.32 24.32 0 0 1 34.61 79a11.74 11.74 0 0 1-3-.25 34 34 0 0 0 18.53 5.57c22.48 0 34.59-19 34.59-35.48v-1.48a25.83 25.83 0 0 0 6.18-6.59"/></clipPath></defs><g id="Слой_2" data-name="Слой 2"><g id="Слой_1-2" data-name="Слой 1"><path class="cls-2 cls-3" d="M21.65 24.94h79.29v69.41H21.65z"/><circle class="cls-4" cx="58" cy="58" r="56"/></g></g></svg>