<svg xmlns="http://www.w3.org/2000/svg" viewBox="0 0 220 220"><defs><style>.cls-1,.cls-4{fill:none}.cls-2{clip-path:url(#clip-path)}.cls-3{fill:#fff}.cls-4{stroke:#d45035;stroke-miterlimit:10;stroke-width:4px}</style><clipPath id="clip-path"><circle class="cls-1" cx="110" cy="110" r="100"/></clipPath></defs><g id="Слой_2" data-name="Слой 2"><g id="Слой_1-2" data-name="Слой 1"><path class="cls-2 cls-3" d="M0 0h220v220H0z"/><path class="cls-4" d="M110 121.74a21.43 21.43 0 0 0-16.27 7.56L110 145.61l16.27-16.31a21.43 21.43 0 0 0-16.27-7.56zM110 74a68.86 68.86 0 0 0-50 21.49l8.89 8.91a56.38 56.38 0 0 1 82.23 0l8.88-8.91A68.87 68.87 0 0 0 110 74z"/><path class="cls-4" d="M110 97.55a45.49 45.49 0 0 0-33.39 14.59L86 121.6a32.21 32.21 0 0 1 47.91 0l9.43-9.46A45.5 45.5 0 0 0 110 97.55z"/></g></g></svg>