<svg xmlns="http://www.w3.org/2000/svg" viewBox="0 0 200 200"><title>wifi</title><circle cx="100" cy="100" r="100" fill="#fff"/><path d="M100 111.74a21.43 21.43 0 0 0-16.27 7.56L100 135.61l16.27-16.31a21.43 21.43 0 0 0-16.27-7.56zM100 64a68.86 68.86 0 0 0-50 21.49l8.89 8.91a56.38 56.38 0 0 1 79.69-2.54q1.31 1.23 2.54 2.54l8.88-8.91A68.87 68.87 0 0 0 100 64z" fill="none" stroke="#d45035" stroke-miterlimit="10" stroke-width="4"/><path d="M100 87.55a45.49 45.49 0 0 0-33.39 14.59L76 111.6a32.21 32.21 0 0 1 47.91 0l9.43-9.46A45.5 45.5 0 0 0 100 87.55z" fill="none" stroke="#d45035" stroke-miterlimit="10" stroke-width="4"/></svg>