<svg xmlns="http://www.w3.org/2000/svg" xmlns:xlink="http://www.w3.org/1999/xlink" viewBox="0 0 100 94"><defs><style>.cls-1,.cls-5{fill:none;}.cls-2{opacity:0.67;}.cls-2,.cls-4{isolation:isolate;}.cls-3{clip-path:url(#clip-path);}.cls-5{stroke:#fff;stroke-miterlimit:10;stroke-width:4px;}.cls-6{clip-path:url(#clip-path-4);}.cls-7{fill:#fff;}</style><clipPath id="clip-path"><rect class="cls-1" width="100" height="94"/></clipPath><clipPath id="clip-path-4"><circle class="cls-1" cx="16" cy="80" r="4"/></clipPath></defs><title>code_icon</title><g id="Слой_2" data-name="Слой 2"><g id="Слой_1-2" data-name="Слой 1"><g class="cls-2"><g class="cls-3"><g class="cls-4"><g class="cls-3"><g class="cls-3"><path class="cls-5" d="M38,88a3.9,3.9,0,0,1,3.78-4H70.22A3.9,3.9,0,0,1,74,88v4H38Z"/><path class="cls-5" d="M36,2H96a2,2,0,0,1,2,2V74a2,2,0,0,1-2,2H36"/><path class="cls-5" d="M36,10H88a2,2,0,0,1,2,2V60a2,2,0,0,1-2,2H36"/></g><g class="cls-6"><g class="cls-3"><rect class="cls-7" x="2" y="66" width="28" height="28"/></g></g><g class="cls-3"><rect class="cls-5" x="2" y="2" width="28" height="90" rx="2" ry="2"/><line class="cls-5" x1="48" y1="84" x2="48" y2="76"/><line class="cls-5" x1="64" y1="84" x2="64" y2="76"/></g></g></g></g></g></g></g></svg>