<svg xmlns="http://www.w3.org/2000/svg" xmlns:xlink="http://www.w3.org/1999/xlink" viewBox="0 0 100 92"><defs><style>.cls-1,.cls-7{fill:none;}.cls-2{opacity:0.67;}.cls-2,.cls-4,.cls-5{isolation:isolate;}.cls-3{clip-path:url(#clip-path);}.cls-5{opacity:0.86;}.cls-6{clip-path:url(#clip-path-5);}.cls-7{stroke:#fff;stroke-miterlimit:10;stroke-width:4px;}.cls-8{clip-path:url(#clip-path-8);}.cls-9{clip-path:url(#clip-path-11);}.cls-10{clip-path:url(#clip-path-14);}.cls-11{clip-path:url(#clip-path-17);}.cls-12{clip-path:url(#clip-path-20);}.cls-13{clip-path:url(#clip-path-23);}.cls-14{clip-path:url(#clip-path-26);}.cls-15{clip-path:url(#clip-path-29);}.cls-16{clip-path:url(#clip-path-32);}</style><clipPath id="clip-path"><rect class="cls-1" width="100" height="92"/></clipPath><clipPath id="clip-path-5"><rect class="cls-1" x="22" width="24" height="24"/></clipPath><clipPath id="clip-path-8"><rect class="cls-1" x="36" y="36" width="28" height="28"/></clipPath><clipPath id="clip-path-11"><rect class="cls-1" x="32" y="60" width="36" height="32"/></clipPath><clipPath id="clip-path-14"><rect class="cls-1" x="68" y="24" width="28" height="28"/></clipPath><clipPath id="clip-path-17"><rect class="cls-1" x="64" y="48" width="36" height="32"/></clipPath><clipPath id="clip-path-20"><rect class="cls-1" x="4" y="24" width="28" height="28"/></clipPath><clipPath id="clip-path-23"><rect class="cls-1" y="48" width="36" height="32"/></clipPath><clipPath id="clip-path-26"><rect class="cls-1" x="20" y="20" width="32" height="20"/></clipPath><clipPath id="clip-path-29"><rect class="cls-1" x="52" width="26" height="24"/></clipPath><clipPath id="clip-path-32"><rect class="cls-1" x="48" y="20" width="32" height="20"/></clipPath></defs><title>cowork_icon</title><g id="Слой_2" data-name="Слой 2"><g id="Слой_1-2" data-name="Слой 1"><g class="cls-2"><g class="cls-3"><g class="cls-3"><g class="cls-4"><g class="cls-3"><g class="cls-3"><g class="cls-5"><g class="cls-6"><g class="cls-6"><circle class="cls-7" cx="34" cy="12" r="10"/></g></g></g></g><g class="cls-3"><g class="cls-5"><g class="cls-8"><g class="cls-8"><circle class="cls-7" cx="50" cy="50" r="12"/></g></g></g></g><g class="cls-3"><g class="cls-5"><g class="cls-9"><g class="cls-9"><path class="cls-7" d="M66,78a16,16,0,0,0-32,0v9s4,3,16,3,16-3,16-3Z"/></g></g></g></g><g class="cls-3"><g class="cls-5"><g class="cls-10"><g class="cls-10"><circle class="cls-7" cx="82" cy="38" r="12"/></g></g></g></g><g class="cls-3"><g class="cls-5"><g class="cls-11"><g class="cls-11"><path class="cls-7" d="M98,66a16,16,0,0,0-32,0v9s4,3,16,3,16-3,16-3Z"/></g></g></g></g><g class="cls-3"><g class="cls-5"><g class="cls-12"><g class="cls-12"><circle class="cls-7" cx="18" cy="38" r="12"/></g></g></g></g><g class="cls-3"><g class="cls-5"><g class="cls-13"><g class="cls-13"><path class="cls-7" d="M34,66A16,16,0,0,0,2,66v9s4,3,16,3,16-3,16-3Z"/></g></g></g></g><g class="cls-3"><g class="cls-5"><g class="cls-14"><g class="cls-14"><path class="cls-7" d="M48,37.6V36A13.91,13.91,0,0,0,34,22a13.75,13.75,0,0,0-10.8,5.2"/></g></g></g></g><g class="cls-3"><g class="cls-5"><g class="cls-15"><g class="cls-15"><circle class="cls-7" cx="65.6" cy="12" r="10"/></g></g></g></g><g class="cls-3"><g class="cls-5"><g class="cls-16"><g class="cls-16"><path class="cls-7" d="M51.6,37.6V36a13.91,13.91,0,0,1,14-14,13.76,13.76,0,0,1,10.8,5.2"/></g></g></g></g></g></g></g></g></g></g></g></svg>