<svg xmlns="http://www.w3.org/2000/svg" viewBox="0 0 100 92"><defs><style>.cls-1,.cls-7{fill:none;}.cls-2{opacity:0.67;}.cls-2,.cls-4,.cls-5{isolation:isolate;}.cls-3{clip-path:url(#clip-path);}.cls-5{opacity:0.86;}.cls-6{clip-path:url(#clip-path-5);}.cls-7{stroke:#fff;stroke-miterlimit:10;stroke-width:4px;}.cls-8{clip-path:url(#clip-path-8);}.cls-9{clip-path:url(#clip-path-11);}.cls-10{clip-path:url(#clip-path-14);}.cls-11{clip-path:url(#clip-path-17);}.cls-12{clip-path:url(#clip-path-20);}.cls-13{clip-path:url(#clip-path-23);}.cls-14{clip-path:url(#clip-path-26);}.cls-15{clip-path:url(#clip-path-29);}.cls-16{clip-path:url(#clip-path-32);}</style><clipPath id="clip-path"><path class="cls-1" d="M0 0h100v92H0z"/></clipPath><clipPath id="clip-path-5"><path class="cls-1" d="M22 0h24v24H22z"/></clipPath><clipPath id="clip-path-8"><path class="cls-1" d="M36 36h28v28H36z"/></clipPath><clipPath id="clip-path-11"><path class="cls-1" d="M32 60h36v32H32z"/></clipPath><clipPath id="clip-path-14"><path class="cls-1" d="M68 24h28v28H68z"/></clipPath><clipPath id="clip-path-17"><path class="cls-1" d="M64 48h36v32H64z"/></clipPath><clipPath id="clip-path-20"><path class="cls-1" d="M4 24h28v28H4z"/></clipPath><clipPath id="clip-path-23"><path class="cls-1" d="M0 48h36v32H0z"/></clipPath><clipPath id="clip-path-26"><path class="cls-1" d="M20 20h32v20H20z"/></clipPath><clipPath id="clip-path-29"><path class="cls-1" d="M52 0h26v24H52z"/></clipPath><clipPath id="clip-path-32"><path class="cls-1" d="M48 20h32v20H48z"/></clipPath></defs><g id="Слой_2" data-name="Слой 2"><g class="cls-2 cls-3 cls-3 cls-4 cls-3" id="Слой_1-2" data-name="Слой 1"><circle class="cls-3 cls-5 cls-6 cls-6 cls-7" cx="34" cy="12" r="10"/><circle class="cls-3 cls-5 cls-8 cls-8 cls-7" cx="50" cy="50" r="12"/><path class="cls-3 cls-5 cls-9 cls-9 cls-7" d="M66 78a16 16 0 0 0-32 0v9s4 3 16 3 16-3 16-3z"/><circle class="cls-3 cls-5 cls-10 cls-10 cls-7" cx="82" cy="38" r="12"/><path class="cls-3 cls-5 cls-11 cls-11 cls-7" d="M98 66a16 16 0 0 0-32 0v9s4 3 16 3 16-3 16-3z"/><circle class="cls-3 cls-5 cls-12 cls-12 cls-7" cx="18" cy="38" r="12"/><path class="cls-3 cls-5 cls-13 cls-13 cls-7" d="M34 66a16 16 0 0 0-32 0v9s4 3 16 3 16-3 16-3z"/><path class="cls-3 cls-5 cls-14 cls-14 cls-7" d="M48 37.6V36a13.91 13.91 0 0 0-14-14 13.75 13.75 0 0 0-10.8 5.2"/><circle class="cls-3 cls-5 cls-15 cls-15 cls-7" cx="65.6" cy="12" r="10"/><path class="cls-3 cls-5 cls-16 cls-16 cls-7" d="M51.6 37.6V36a13.91 13.91 0 0 1 14-14 13.76 13.76 0 0 1 10.8 5.2"/></g></g></svg>