<svg xmlns="http://www.w3.org/2000/svg" viewBox="0 0 100 92"><title>cowork_icon</title><rect width="100" height="92" style="fill:none"/><circle cx="34" cy="12" r="10" style="fill:#fff;stroke:#fff;stroke-miterlimit:10;stroke-width:4px;opacity:0.8600000143051147;isolation:isolate"/><circle cx="50" cy="50" r="12" style="fill:#fff;stroke:#fff;stroke-miterlimit:10;stroke-width:4px;opacity:0.8600000143051147;isolation:isolate"/><path d="M50,62A16,16,0,0,0,34,78v9s4,3,16,3,16-3,16-3V78A16,16,0,0,0,50,62Z" style="fill:#fff;stroke:#fff;stroke-miterlimit:10;stroke-width:4px;opacity:0.8600000143051147;isolation:isolate"/><circle cx="82" cy="38" r="12" style="fill:#fff;stroke:#fff;stroke-miterlimit:10;stroke-width:4px;opacity:0.8600000143051147;isolation:isolate"/><path d="M82,50A16,16,0,0,0,66,66v9s4,3,16,3,16-3,16-3V66A16,16,0,0,0,82,50Z" style="fill:#fff;stroke:#fff;stroke-miterlimit:10;stroke-width:4px;opacity:0.8600000143051147;isolation:isolate"/><path d="M30,38a12,12,0,0,0-6.77-10.79L48,37.6V36A13.91,13.91,0,0,0,34.18,22H34a13.75,13.75,0,0,0-10.8,5.2A12,12,0,1,0,30,38Z" style="fill:#fff;stroke:#fff;stroke-miterlimit:10;stroke-width:4px;opacity:0.8600000143051147;isolation:isolate"/><path d="M34,66A16,16,0,0,0,2,66v9s4,3,16,3,16-3,16-3Z" style="fill:#fff;stroke:#fff;stroke-miterlimit:10;stroke-width:4px;opacity:0.8600000143051147;isolation:isolate"/><circle cx="65.6" cy="12" r="10" style="fill:#fff;stroke:#fff;stroke-miterlimit:10;stroke-width:4px;opacity:0.8600000143051147;isolation:isolate"/><path d="M65.6,22h-.18A13.91,13.91,0,0,0,51.6,36v1.6L76.4,27.2A13.76,13.76,0,0,0,65.6,22Z" style="fill:#fff;stroke:#fff;stroke-miterlimit:10;stroke-width:4px;opacity:0.8600000143051147;isolation:isolate"/></svg>