<svg xmlns="http://www.w3.org/2000/svg" viewBox="0 0 220 220"><defs><style>.cls-1,.cls-2{fill:none;}.cls-2{clip-rule:evenodd;}.cls-3{clip-path:url(#clip-path);}.cls-4{fill:#fff;}.cls-5{clip-path:url(#clip-path-2);}.cls-6{fill:#d45035;}.cls-7{clip-path:url(#clip-path-3);}.cls-8{clip-path:url(#clip-path-4);}.cls-9{clip-path:url(#clip-path-5);}.cls-10{clip-path:url(#clip-path-6);}.cls-11{clip-path:url(#clip-path-7);}</style><clipPath id="clip-path"><circle class="cls-1" cx="110" cy="110" r="100"/></clipPath><clipPath id="clip-path-2"><path class="cls-2" d="M163.13 116a19.27 19.27 0 0 1-19.57 19.57h-5.4c-1 0-2 1.52-2 2.53v14.68a1.34 1.34 0 0 1-1.52 1.52H76.89c-1 0-1.52-.34-1.52-1.52V76.49h60.75V87c0 1 1.18 1.35 2 1.35h5.91c10.8 0 19.07 9.11 19.07 20.08zm-19.07-31.07h-4.56v-10.8c0-1-.34-1-1.35-1h-65c-1 0-1.18 0-1.18 1v78.64a4.61 4.61 0 0 0 4.89 4.89h57.71a4.61 4.61 0 0 0 4.89-4.89V139.1h4.05c12.82-.17 22.95-10 22.95-23.12v-7.76c.04-12.66-9.75-23.29-22.4-23.29z"/></clipPath><clipPath id="clip-path-3"><path class="cls-2" d="M154.69 115.81a11.5 11.5 0 0 1-11.14 11.31h-2.36V96.74h2.36c5.91 0 11.14 5.57 11.14 11.64zm-11.14-22.44h-4.39c-1 0-1.35 1.35-1.35 2.36v32.74c0 1 .34 2.19 1.35 2.19h4.39c7.76 0 14.51-6.92 14.51-14.68v-7.43c0-8.09-6.75-15.18-14.51-15.18z"/></clipPath><clipPath id="clip-path-4"><path class="cls-2" d="M117.56 115.31l-12.15 12.32-12.15-12.32a8.07 8.07 0 0 1 .34-11 3.7 3.7 0 0 1 2.87-1.18c2.19 0 5.23 1.52 7.93 3.88a1.63 1.63 0 0 0 2.36 0c2.53-2.36 5.57-3.88 7.93-3.88a3.47 3.47 0 0 1 2.87 1.18 7.9 7.9 0 0 1 0 11zm-3-15.52a14.37 14.37 0 0 0-8.94 3.88c-3-2.36-6.24-3.88-8.94-3.88a8.13 8.13 0 0 0-5.4 2.19 11.15 11.15 0 0 0-.17 15.69l13.33 13.67a1.63 1.63 0 0 0 2.36 0l13.33-13.67a11.15 11.15 0 0 0-.17-15.69 7.39 7.39 0 0 0-5.43-2.2z"/></clipPath><clipPath id="clip-path-5"><path class="cls-2" d="M97.31 69.74A1.59 1.59 0 0 0 99 68.06V57.93a1.69 1.69 0 0 0-3.37 0v10.13a1.69 1.69 0 0 0 1.68 1.68z"/></clipPath><clipPath id="clip-path-6"><path class="cls-2" d="M107.44 64.68a1.59 1.59 0 0 0 1.69-1.68V52.87a1.69 1.69 0 1 0-3.37 0V63a1.69 1.69 0 0 0 1.68 1.68z"/></clipPath><clipPath id="clip-path-7"><path class="cls-2" d="M117.56 68.06a1.59 1.59 0 0 0 1.69-1.69V56.24a1.69 1.69 0 1 0-3.37 0v10.13a1.69 1.69 0 0 0 1.68 1.69z"/></clipPath></defs><g id="Слой_2" data-name="Слой 2"><g id="Слой_1-2" data-name="Слой 1"><path class="cls-3 cls-4" d="M0 0h220v220H0z"/><path class="cls-5 cls-6" d="M62 63.12h114.5v104.54H62z"/><path class="cls-7 cls-6" d="M127.81 83.37h40.25v57.29h-40.25z"/><path class="cls-8 cls-6" d="M77.93 89.78h55.31v52.06H77.93z"/><path class="cls-9 cls-6" d="M85.63 46.24h23.38v33.5H85.63z"/><path class="cls-10 cls-6" d="M95.75 41.18h23.38v33.5H95.75z"/><path class="cls-11 cls-6" d="M105.88 44.56h23.38v33.5h-23.38z"/></g></g></svg>