<svg xmlns="http://www.w3.org/2000/svg" xmlns:xlink="http://www.w3.org/1999/xlink" viewBox="0 0 123.51 125.47"><defs><style>.cls-1,.cls-2{fill:none;}.cls-2{clip-rule:evenodd;}.cls-3{opacity:0.67;}.cls-3,.cls-5{isolation:isolate;}.cls-4{clip-path:url(#clip-path);}.cls-6{clip-path:url(#clip-path-4);}.cls-7{fill:#fff;}.cls-8{clip-path:url(#clip-path-6);}.cls-9{clip-path:url(#clip-path-8);}</style><clipPath id="clip-path"><rect class="cls-1" x="9.76" y="10" width="104" height="106"/></clipPath><clipPath id="clip-path-4"><path class="cls-2" d="M100.92,71.21a.53.53,0,0,1-.52.52H23.1a.53.53,0,0,1-.52-.52V20.29h78.33V71.21ZM108.33,10H15.18a5.14,5.14,0,1,0,0,10.29h1.2V71.21A6.72,6.72,0,0,0,23.1,77.9h77.3a6.72,6.72,0,0,0,6.73-6.69V20.29h1.2a5.14,5.14,0,1,0,0-10.29Z"/></clipPath><clipPath id="clip-path-6"><path class="cls-2" d="M87.88,37.7a2.92,2.92,0,0,1-.49,0A2.6,2.6,0,0,1,85.44,36a2.58,2.58,0,1,1,2.44,1.73ZM72,56.27a2.58,2.58,0,0,1-5.15,0,2.78,2.78,0,0,1,.1-.72,2.58,2.58,0,0,1,1.88-1.77,2.79,2.79,0,0,1,.6-.07,2.51,2.51,0,0,1,.48,0A2.55,2.55,0,0,1,72,56.27ZM57.17,46a2.6,2.6,0,0,1-1.26-.32,2.57,2.57,0,0,1-1.32-2.2v0a2.58,2.58,0,0,1,5.16,0,2.5,2.5,0,0,1-.11.73A2.58,2.58,0,0,1,57.77,46,2.64,2.64,0,0,1,57.17,46Zm-19,10.25a2.58,2.58,0,1,1-2.58-2.56,2.54,2.54,0,0,1,1.25.32,2.57,2.57,0,0,1,1.33,2.2ZM87.88,30a5.15,5.15,0,0,0-5.16,5.12,5.05,5.05,0,0,0,.91,2.9L71.7,51.68a5.09,5.09,0,0,0-2.29-.54,5.15,5.15,0,0,0-2.5.65l-5.37-5.62a5.09,5.09,0,0,0,.79-2.71,5.15,5.15,0,1,0-10.1,1.45l-13,7.72a5.11,5.11,0,1,0,1.54,3.64,4.88,4.88,0,0,0-.21-1.45l13-7.72a5.16,5.16,0,0,0,6.11.83L65,53.55a5.07,5.07,0,0,0-.78,2.72,5.15,5.15,0,0,0,10.31,0,5.07,5.07,0,0,0-.91-2.91L85.57,39.72A5.13,5.13,0,1,0,87.88,30Z"/></clipPath><clipPath id="clip-path-8"><path class="cls-2" d="M96.22,107.2a4.16,4.16,0,0,0-2.3.69L63.57,92.59V77.9H59.94V92.59l-30.36,15.3a4.13,4.13,0,1,0,1.86,3.45c0-.12,0-.23,0-.34L59.94,96.63v11a4.16,4.16,0,1,0,3.62,0v-11L92.07,111c0,.11,0,.23,0,.34a4.16,4.16,0,1,0,4.16-4.14Z"/></clipPath></defs><title>events__icon</title><g id="Слой_2" data-name="Слой 2"><g id="Слой_1-2" data-name="Слой 1"><g class="cls-3"><g class="cls-4"><g class="cls-4"><g class="cls-5"><g class="cls-4"><g class="cls-6"><g class="cls-4"><rect class="cls-7" width="123.51" height="87.9"/></g></g><g class="cls-8"><g class="cls-4"><rect class="cls-7" x="20.48" y="20.01" width="82.55" height="51.38"/></g></g><g class="cls-9"><g class="cls-4"><rect class="cls-7" x="13.13" y="67.9" width="97.26" height="57.57"/></g></g></g></g></g></g></g></g></g></svg>