<svg xmlns="http://www.w3.org/2000/svg" viewBox="0 0 116.01 77.95"><title>hat</title><path d="M113.43,51.22a2.42,2.42,0,0,0-2.26,2.57,19.35,19.35,0,0,1-14.5,18.69V61.89a2.29,2.29,0,0,0,0-1.68V39.29q0-.62,0-1.24a38.67,38.67,0,0,0-77.33,1.24v20.9a2.29,2.29,0,0,0,0,1.67V72.48A19.35,19.35,0,0,1,4.84,53.79a2.42,2.42,0,1,0-4.83,0A24.19,24.19,0,0,0,24.18,78H91.84A24.19,24.19,0,0,0,116,53.79a2.42,2.42,0,0,0-2.57-2.57ZM58,5.46A33.83,33.83,0,0,1,91.85,39.29V58.62H24.18V39.29A33.83,33.83,0,0,1,58,5.46ZM24.18,73.12V63.45H91.85v9.67Z" style="fill:#d45035"/></svg>