<svg xmlns="http://www.w3.org/2000/svg" viewBox="0 0 220 220"><defs><style>.cls-1,.cls-2{fill:none;}.cls-2{clip-rule:evenodd;}.cls-3{clip-path:url(#clip-path);}.cls-4{fill:#fff;}.cls-5{clip-path:url(#clip-path-2);}.cls-6{fill:#d45035;}.cls-7{clip-path:url(#clip-path-3);}.cls-8{clip-path:url(#clip-path-4);}</style><clipPath id="clip-path"><circle class="cls-1" cx="110" cy="110" r="100"/></clipPath><clipPath id="clip-path-2"><path class="cls-2" d="M143.83 149.33H76.17A24.19 24.19 0 0 1 52 125.17a2.42 2.42 0 1 1 4.83 0 19.36 19.36 0 0 0 19.34 19.33h67.67a19.36 19.36 0 0 0 19.33-19.33 2.42 2.42 0 1 1 4.83 0 24.19 24.19 0 0 1-24.17 24.16z"/></clipPath><clipPath id="clip-path-3"><path class="cls-2" d="M146.25 134.83h-72.5a2.42 2.42 0 1 1 0-4.83h72.5a2.42 2.42 0 1 1 0 4.83z"/></clipPath><clipPath id="clip-path-4"><path class="cls-2" d="M148.67 146.78h-4.83v-36.11a33.83 33.83 0 1 0-67.67 0v36.12h-4.84v-36.12a38.67 38.67 0 1 1 77.33 0z"/></clipPath></defs><g id="Слой_2" data-name="Слой 2"><g id="Слой_1-2" data-name="Слой 1"><path class="cls-3 cls-4" d="M0 0h220v220H0z"/><path class="cls-5 cls-6" d="M42 112.75h136v46.58H42z"/><path class="cls-7 cls-6" d="M61.33 120h97.33v24.83H61.33z"/><path class="cls-8 cls-6" d="M61.33 62h97.33v94.78H61.33z"/></g></g></svg>