<svg xmlns="http://www.w3.org/2000/svg" viewBox="0 0 177.46 20.18"><path d="M67 12.92h-5l2.49-7.85zm1.25 3.73l1.11 3.29h4.7L66.9.59h-5L55 19.94h4.7l1.05-3.29zm-59.54-.57V4.1h3.73V.41H0V4.1h4v12H0v3.69h12.44v-3.71zm168.74 3.73V0h-4.15v15.66h-8.52V0h-4.15v19.81zM127.17.41h-4.42v10.95c0 3-1.36 4.81-3.57 4.81h-.83c-2.35 0-3.79-1.85-3.79-4.81V.41h-4.42v11.23c0 5.48 3.1 8.54 8.21 8.54h.83c5 0 8-3.07 8-8.54zm11.28 9.87V4.42h8.3a2.54 2.54 0 0 1 2.65 2.85c0 1.91-1 3-2.65 3zm-4.7 9.48h4.7v-5.47h7.91l2.93 5.47h5.36l-3.51-6.58a6.63 6.63 0 0 0 3.21-6c0-4-2.9-6.8-7.6-6.8h-13zm-30.49.17V9H90.6v3.46h8.14v3.34H84.39V4.7h18.87V.59H79.87v19.35h23.4zM49 19.77V8.54C49 3.07 45.9 0 40.79 0H40a7.76 7.76 0 0 0-5.88 2.24A8.1 8.1 0 0 0 28 0h-.83c-5 0-8 3.07-8 8.54v11.23h4.42V8.82C23.64 5.83 25 4 27.21 4H28c2.35 0 3.79 1.85 3.79 4.81v10.96h4.56V8.82C36.39 5.83 37.75 4 40 4h.83c2.35 0 3.79 1.85 3.79 4.81v10.96z" data-name="Слой 2"/></svg>