<svg xmlns="http://www.w3.org/2000/svg" viewBox="0 0 116 116"><title>linkedin_icon</title><circle cx="58" cy="58" r="56" style="fill:none;stroke:#fff;stroke-miterlimit:10;stroke-width:4px"/><path d="M76.08,76.14H67.93V63c0-3.18-.84-5.34-3.68-5.34a4.14,4.14,0,0,0-3.91,2.87,5.36,5.36,0,0,0-.26,1.91v13.7H51.89V52H60v3.41a7.57,7.57,0,0,1,7-3.91c5.17,0,9,3.38,9,10.63v14ZM43.84,48.79A4.07,4.07,0,0,1,39.51,45q0-.14,0-.29c0-2.32,1.76-4.08,4.44-4.08a4.1,4.1,0,1,1,0,8.17Zm4.24,27.35H40V52h8ZM74.25,32H41.75A9.75,9.75,0,0,0,32,41.75v32.5A9.75,9.75,0,0,0,41.75,84h32.5A9.75,9.75,0,0,0,84,74.25V41.75A9.75,9.75,0,0,0,74.25,32Z" style="fill:#fff"/></svg>