<svg xmlns="http://www.w3.org/2000/svg" viewBox="0 0 116 116"><defs><style>.cls-1,.cls-2{fill:none;}.cls-1{clip-rule:evenodd;}.cls-2{stroke:#fff;stroke-miterlimit:10;stroke-width:4px;}.cls-3{clip-path:url(#clip-path);}.cls-4{fill:#fff;}</style><clipPath id="clip-path"><path class="cls-1" d="M76.08 76.14h-8.15V63c0-3.18-.84-5.34-3.68-5.34a4.14 4.14 0 0 0-3.91 2.87 5.36 5.36 0 0 0-.26 1.91v13.7h-8.19V51.95H60v3.41a7.57 7.57 0 0 1 7-3.91c5.17 0 9 3.38 9 10.63v14zM43.84 48.79a4.07 4.07 0 0 1-4.34-4.08c0-2.32 1.76-4.08 4.44-4.08a4.1 4.1 0 1 1-.05 8.17zm4.24 27.35H40V52h8zM74.25 32h-32.5A9.75 9.75 0 0 0 32 41.75v32.5A9.75 9.75 0 0 0 41.75 84h32.5A9.75 9.75 0 0 0 84 74.25v-32.5A9.75 9.75 0 0 0 74.25 32z"/></clipPath></defs><title>linkedin_icon</title><g id="Слой_2" data-name="Слой 2"><g id="Слой_1-2" data-name="Слой 1"><circle class="cls-2" cx="58" cy="58" r="56"/><path class="cls-3 cls-4" d="M22 22h72v72H22z"/></g></g></svg>