<svg xmlns="http://www.w3.org/2000/svg" viewBox="0 0 380 43.22"><defs><style>.cls-1{fill:#fff;}</style></defs><g id="Слой_2" data-name="Слой 2"><path id="Home" d="M143.56 27.66h-10.83l5.33-16.82zm2.67 8l2.37 7h10.06L143.27 1.25h-10.66l-14.8 41.45h10.06l2.25-7zM18.66 34.44V8.78h8V.88H0v7.9h8.6v25.66H0v7.9h26.64v-7.9zm361.34 8V.09h-8.88v33.45h-18.26V.09H344v42.33zM272.32.88h-9.47v23.45c0 6.39-2.9 10.3-7.64 10.3h-1.78c-5 0-8.11-4-8.11-10.3V.88h-9.47v24c0 11.72 6.63 18.3 17.58 18.3h1.78c10.66 0 17.11-6.57 17.11-18.3zM296.47 22V9.47h17.76c3.55 0 5.68 2.31 5.68 6.1 0 4.09-2.19 6.45-5.68 6.45zM286.4 42.33h10.06V30.61h16.94l6.27 11.72h11.49l-7.52-14.09c4.38-2.61 6.87-7.11 6.87-12.79 0-8.58-6.22-14.57-16.28-14.57H286.4zm-65.28.37V19.32H194v7.4h17.44v7.15H180.7v-23.8h40.42V1.25H171V42.7h50.1zm-116.2-.37v-24C104.92 6.57 98.29 0 87.34 0h-1.78C80.21 0 75.92 1.66 73 4.79 69.95 1.66 65.54 0 60 0h-1.73C47.61 0 41.16 6.57 41.16 18.29v24h9.47V18.88c0-6.39 2.9-10.3 7.64-10.3H60c5 0 8.11 4 8.11 10.3v23.45h9.77V18.88c0-6.39 2.9-10.3 7.64-10.3h1.78c5 0 8.11 4 8.11 10.3v23.45z" class="cls-1"/></g></svg>