<svg xmlns="http://www.w3.org/2000/svg" viewBox="0 0 220 220"><defs><style>.cls-1,.cls-4{fill:none;}.cls-2{clip-path:url(#clip-path);}.cls-3{fill:#fff;}.cls-4{stroke:#d45035;stroke-miterlimit:10;stroke-width:4px;}</style><clipPath id="clip-path"><circle class="cls-1" cx="110" cy="110" r="100"/></clipPath></defs><g id="Слой_2" data-name="Слой 2"><g id="Слой_1-2" data-name="Слой 1"><path class="cls-2 cls-3" d="M0 0h220v220H0z"/><circle class="cls-4" cx="108.47" cy="127.8" r="11.12"/><path class="cls-4" d="M123.29 153.74a14.82 14.82 0 1 0-29.65 0v8.34s3.71 2.78 14.82 2.78 14.82-2.78 14.82-2.78z"/><circle class="cls-4" cx="138.11" cy="116.68" r="11.12"/><path class="cls-4" d="M152.94 142.62a14.82 14.82 0 1 0-29.65 0V151s3.71 2.78 14.82 2.78 14.83-2.78 14.83-2.78z"/><circle class="cls-4" cx="78.82" cy="116.68" r="11.12"/><path class="cls-4" d="M93.65 142.62a14.82 14.82 0 1 0-29.65 0V151s3.71 2.78 14.82 2.78S93.65 151 93.65 151zM135.55 60.25a12.59 12.59 0 0 0-19.92-7.42 16.53 16.53 0 0 0-31.16 7.68A13.43 13.43 0 0 0 86 87.28h.37a13.38 13.38 0 0 0 24.89 3.85A11.55 11.55 0 0 0 131.8 85a12.8 12.8 0 0 0 2.46.24 12.51 12.51 0 0 0 1.29-24.94z"/></g></g></svg>