<svg xmlns="http://www.w3.org/2000/svg" viewBox="0 0 17.48 17.48"><title>search_icon</title><g id="Слой_2" data-name="Слой 2"><g id="Post"><g id="PostWeb"><g id="_1stScreen" data-name="1stScreen"><g id="Header"><path d="M12.52,11l5,5L16,17.48l-5-5v-.8l-.28-.28A6.23,6.23,0,0,1,6.52,13,6.32,6.32,0,0,1,1.9,11.11,6.21,6.21,0,0,1,0,6.52,6.29,6.29,0,0,1,1.9,1.9,6.28,6.28,0,0,1,6.52,0a6.21,6.21,0,0,1,4.59,1.9A6.33,6.33,0,0,1,13,6.52a6.22,6.22,0,0,1-1.55,4.22l.28.28ZM3.33,9.7A4.34,4.34,0,0,0,6.52,11,4.34,4.34,0,0,0,9.7,9.7,4.34,4.34,0,0,0,11,6.52,4.34,4.34,0,0,0,9.7,3.33,4.34,4.34,0,0,0,6.52,2,4.34,4.34,0,0,0,3.33,3.33,4.34,4.34,0,0,0,2,6.52,4.34,4.34,0,0,0,3.33,9.7Z"/></g></g></g></g></g></svg>