<svg xmlns="http://www.w3.org/2000/svg" viewBox="0 0 200 200"><title>Ресурс 5</title><circle cx="100" cy="100" r="100" style="fill:#fff"/><path d="M130.92,144.75a5.36,5.36,0,0,0-5.36-5.36H98.75a5.36,5.36,0,0,0-5.36,5.36h0v2.68h37.54Z" style="fill:none;stroke:#d45035;stroke-miterlimit:10;stroke-width:8px"/><path d="M80.29,73.88V63.08a7.08,7.08,0,1,0-14.15-.53q0,.27,0,.53V73.87C57.92,77.63,52,87.45,52,96.69c0,0,4.51,5.31,21.23,5.31s21.23-5.31,21.23-5.31C94.46,87.45,88.54,77.63,80.29,73.88Z" style="fill:none;stroke:#d45035;stroke-miterlimit:10;stroke-width:4px"/><path d="M114.17,137.43l22.41-39.28-28-31.54-28.7,2.24" style="fill:none;stroke:#d45035;stroke-miterlimit:10;stroke-width:4px"/><circle cx="134.93" cy="98.47" r="5.08" style="fill:#d45035"/></svg>