<svg xmlns="http://www.w3.org/2000/svg" xmlns:xlink="http://www.w3.org/1999/xlink" viewBox="0 0 100 94"><defs><clipPath id="a"><rect width="100" height="94" style="fill:none"/></clipPath></defs><title>code_icon</title><g style="clip-path:url(#a)"><g style="opacity:0.6700000166893005"><g style="clip-path:url(#a)"><path d="M38,88a3.9,3.9,0,0,1,3.78-4H70.22A3.9,3.9,0,0,1,74,88v4H38ZM36,2H96a2,2,0,0,1,2,2V74a2,2,0,0,1-2,2H36" style="fill:none;stroke:#fff;stroke-miterlimit:10;stroke-width:4px"/><path d="M36,10H88a2,2,0,0,1,2,2V60a2,2,0,0,1-2,2H36" style="fill:none;stroke:#fff;stroke-miterlimit:10;stroke-width:4px"/><rect x="2" y="2" width="28" height="90" rx="2" ry="2" style="fill:none;stroke:#fff;stroke-miterlimit:10;stroke-width:4px"/><path d="M48,84V76m16,8V76" style="fill:none;stroke:#fff;stroke-miterlimit:10;stroke-width:4px"/></g></g></g></svg>