<svg xmlns="http://www.w3.org/2000/svg" xmlns:xlink="http://www.w3.org/1999/xlink" viewBox="0 0 100 92"><defs><clipPath id="a"><rect width="100" height="92" style="fill:none"/></clipPath><clipPath id="e"><rect x="22" width="24" height="24" style="fill:none"/></clipPath><clipPath id="h"><rect x="36" y="36" width="28" height="28" style="fill:none"/></clipPath><clipPath id="k"><rect x="32" y="60" width="36" height="32" style="fill:none"/></clipPath><clipPath id="n"><rect x="68" y="24" width="28" height="28" style="fill:none"/></clipPath><clipPath id="q"><rect x="64" y="48" width="36" height="32" style="fill:none"/></clipPath><clipPath id="t"><rect x="4" y="24" width="28" height="28" style="fill:none"/></clipPath><clipPath id="w"><rect y="48" width="36" height="32" style="fill:none"/></clipPath><clipPath id="z"><rect x="20" y="20" width="32" height="20" style="fill:none"/></clipPath><clipPath id="ac"><rect x="52" width="26" height="24" style="fill:none"/></clipPath><clipPath id="af"><rect x="48" y="20" width="32" height="20" style="fill:none"/></clipPath></defs><title>people_icon</title><g style="opacity:0.6715999841690063;isolation:isolate"><g style="clip-path:url(#a)"><g style="clip-path:url(#a)"><g style="isolation:isolate"><g style="clip-path:url(#a)"><g style="clip-path:url(#a)"><g style="opacity:0.8626000285148621;isolation:isolate"><g style="clip-path:url(#e)"><g style="clip-path:url(#e)"><circle cx="34" cy="12" r="10" style="fill:none;stroke:#fff;stroke-miterlimit:10;stroke-width:4px"/></g></g></g></g><g style="clip-path:url(#a)"><g style="opacity:0.8626000285148621;isolation:isolate"><g style="clip-path:url(#h)"><g style="clip-path:url(#h)"><circle cx="50" cy="50" r="12" style="fill:none;stroke:#fff;stroke-miterlimit:10;stroke-width:4px"/></g></g></g></g><g style="clip-path:url(#a)"><g style="opacity:0.8626000285148621;isolation:isolate"><g style="clip-path:url(#k)"><g style="clip-path:url(#k)"><path d="M66,78a16,16,0,0,0-32,0v9s4,3,16,3,16-3,16-3Z" style="fill:none;stroke:#fff;stroke-miterlimit:10;stroke-width:4px"/></g></g></g></g><g style="clip-path:url(#a)"><g style="opacity:0.8626000285148621;isolation:isolate"><g style="clip-path:url(#n)"><g style="clip-path:url(#n)"><circle cx="82" cy="38" r="12" style="fill:none;stroke:#fff;stroke-miterlimit:10;stroke-width:4px"/></g></g></g></g><g style="clip-path:url(#a)"><g style="opacity:0.8626000285148621;isolation:isolate"><g style="clip-path:url(#q)"><g style="clip-path:url(#q)"><path d="M98,66a16,16,0,0,0-32,0v9s4,3,16,3,16-3,16-3Z" style="fill:none;stroke:#fff;stroke-miterlimit:10;stroke-width:4px"/></g></g></g></g><g style="clip-path:url(#a)"><g style="opacity:0.8626000285148621;isolation:isolate"><g style="clip-path:url(#t)"><g style="clip-path:url(#t)"><circle cx="18" cy="38" r="12" style="fill:none;stroke:#fff;stroke-miterlimit:10;stroke-width:4px"/></g></g></g></g><g style="clip-path:url(#a)"><g style="opacity:0.8626000285148621;isolation:isolate"><g style="clip-path:url(#w)"><g style="clip-path:url(#w)"><path d="M34,66A16,16,0,0,0,2,66v9s4,3,16,3,16-3,16-3Z" style="fill:none;stroke:#fff;stroke-miterlimit:10;stroke-width:4px"/></g></g></g></g><g style="clip-path:url(#a)"><g style="opacity:0.8626000285148621;isolation:isolate"><g style="clip-path:url(#z)"><g style="clip-path:url(#z)"><path d="M48,37.6V36A13.91,13.91,0,0,0,34,22a13.75,13.75,0,0,0-10.8,5.2" style="fill:none;stroke:#fff;stroke-miterlimit:10;stroke-width:4px"/></g></g></g></g><g style="clip-path:url(#a)"><g style="opacity:0.8626000285148621;isolation:isolate"><g style="clip-path:url(#ac)"><g style="clip-path:url(#ac)"><circle cx="65.6" cy="12" r="10" style="fill:none;stroke:#fff;stroke-miterlimit:10;stroke-width:4px"/></g></g></g></g><g style="clip-path:url(#a)"><g style="opacity:0.8626000285148621;isolation:isolate"><g style="clip-path:url(#af)"><g style="clip-path:url(#af)"><path d="M51.6,37.6V36a13.91,13.91,0,0,1,14-14,13.76,13.76,0,0,1,10.8,5.2" style="fill:none;stroke:#fff;stroke-miterlimit:10;stroke-width:4px"/></g></g></g></g></g></g></g></g></g></svg>