<svg xmlns="http://www.w3.org/2000/svg" viewBox="0 0 200 200"><title>cup</title><circle cx="100" cy="100" r="100" style="fill:#fff"/><path d="M153.13,106a19.27,19.27,0,0,1-19,19.57h-6c-1,0-2,1.52-2,2.53v14.68a1.34,1.34,0,0,1-1.52,1.52H66.89c-1,0-1.52-.34-1.52-1.52V66.49h60.75V77c0,1,1.18,1.35,2,1.35H134c10.8,0,19.07,9.11,19.07,20.08ZM134.06,74.93H129.5V64.13c0-1-.34-1-1.35-1h-65c-1,0-1.18,0-1.18,1v78.64a4.61,4.61,0,0,0,4.89,4.89h57.71a4.61,4.61,0,0,0,4.89-4.89V129.1h4.05a22.83,22.83,0,0,0,23-22.71q0-.2,0-.39V98.24C156.5,85.56,146.71,74.93,134.06,74.93Z" style="fill:#d45035"/><path d="M144.69,105.81a11.5,11.5,0,0,1-11.14,11.31h-2.36V86.74h2.36c5.91,0,11.14,5.57,11.14,11.64ZM133.55,83.37h-4.39c-1,0-1.35,1.35-1.35,2.36v32.74c0,1,.34,2.19,1.35,2.19h4.39c7.76,0,14.51-6.92,14.51-14.68V98.55C148.06,90.46,141.31,83.37,133.55,83.37Zm-26,21.94L95.41,117.63,83.26,105.31a8.07,8.07,0,0,1,.34-11,3.7,3.7,0,0,1,2.87-1.18c2.19,0,5.23,1.52,7.93,3.88a1.63,1.63,0,0,0,2.3.06l.06-.06c2.53-2.36,5.57-3.88,7.93-3.88a3.47,3.47,0,0,1,2.87,1.18A7.9,7.9,0,0,1,107.56,105.31Zm-3-15.52a14.37,14.37,0,0,0-8.94,3.88c-3-2.36-6.24-3.88-8.94-3.88A8.13,8.13,0,0,0,81.28,92a11.15,11.15,0,0,0-.17,15.69l13.33,13.67a1.63,1.63,0,0,0,2.3.06l.06-.06,13.33-13.67A11.15,11.15,0,0,0,110,92a7.39,7.39,0,0,0-5.43-2.2Zm-17.25-30A1.59,1.59,0,0,0,89,58.06V47.93a1.69,1.69,0,0,0-3.37,0V58.06A1.69,1.69,0,0,0,87.31,59.74Zm10.13-5.06A1.59,1.59,0,0,0,99.13,53V42.87a1.69,1.69,0,1,0-3.37,0V53A1.69,1.69,0,0,0,97.44,54.68Zm10.12,3.38a1.59,1.59,0,0,0,1.69-1.69V46.24a1.69,1.69,0,1,0-3.37,0V56.37A1.69,1.69,0,0,0,107.56,58.06Z" style="fill:#d45035"/></svg>