<svg xmlns="http://www.w3.org/2000/svg" viewBox="0 0 200 200"><title>hat</title><circle cx="100" cy="100" r="100" style="fill:#fff"/><path d="M133.83,139.33H66.17A24.19,24.19,0,0,1,42,115.17a2.42,2.42,0,1,1,4.83,0A19.36,19.36,0,0,0,66.17,134.5h67.67a19.36,19.36,0,0,0,19.33-19.33,2.42,2.42,0,1,1,4.83,0A24.19,24.19,0,0,1,133.83,139.33Z" style="fill:#d45035"/><path d="M136.25,124.83H63.75a2.42,2.42,0,0,1-.31-4.83h72.81a2.42,2.42,0,0,1,.31,4.83Z" style="fill:#d45035"/><path d="M138.67,136.78h-4.83V100.67a33.83,33.83,0,1,0-67.67,0v36.12H61.33V100.67a38.67,38.67,0,0,1,77.33-1.24q0,.62,0,1.24Z" style="fill:#d45035"/></svg>