<svg xmlns="http://www.w3.org/2000/svg" viewBox="0 0 177.45 20.2"><title>header-logo</title><path d="M61.9.61,55,20h4.7l1-3.29h7.5L69.36,20h4.7L66.9.61ZM62,12.94l2.49-7.85L67,12.94Z"/><polygon points="0 4.12 4 4.12 4 16.12 0 16.12 0 19.81 12.44 19.81 12.44 16.1 8.71 16.1 8.71 4.12 12.44 4.12 12.44 0.43 0 0.43 0 4.12"/><path d="M40.79,0H40a7.76,7.76,0,0,0-5.88,2.24A8.1,8.1,0,0,0,28,0h-.83c-5,0-8,3.07-8,8.54V19.79h4.42v-11C23.64,5.85,25,4,27.21,4H28c2.35,0,3.79,1.85,3.79,4.81v11h4.56v-11c0-3,1.4-4.82,3.65-4.82h.83c2.35,0,3.79,1.85,3.79,4.81v11H49V8.56C49,3.09,45.9,0,40.79,0Z"/><polygon points="103.26 9.02 90.6 9.02 90.6 12.48 98.74 12.48 98.74 15.82 84.39 15.82 84.39 4.72 103.26 4.72 103.26 0.61 79.87 0.61 79.87 19.96 103.27 19.96 103.26 19.95 103.26 9.02"/><polygon points="173.3 0.02 173.3 15.68 164.78 15.68 164.78 0.02 160.63 0.02 160.63 19.83 177.45 19.83 177.45 0.02 173.3 0.02"/><path d="M154.35,7.2c0-4-2.9-6.8-7.6-6.8h-13V19.78h4.7V14.31h7.91l2.93,5.47h5.36l-3.51-6.58A6.63,6.63,0,0,0,154.35,7.2Zm-5,.09c0,1.91-1,3-2.65,3h-8.3V4.44h8.3a2.54,2.54,0,0,1,2.65,2.85Z"/><path d="M122.75.43v11c0,3-1.36,4.81-3.57,4.81h-.83c-2.35,0-3.79-1.85-3.79-4.81V.43h-4.42V11.66c0,5.48,3.1,8.54,8.21,8.54h.83c5,0,8-3.07,8-8.54V.43Z"/></svg>