<svg xmlns="http://www.w3.org/2000/svg" viewBox="0 0 46 38"><title>info_twitter</title><path d="M46,4.48A17.06,17.06,0,0,1,40.63,6,10.34,10.34,0,0,0,44.85.78a17.23,17.23,0,0,1-5.94,2.34A10,10,0,0,0,31.82,0a9.49,9.49,0,0,0-9.39,9.55,7.41,7.41,0,0,0,.19,2.14A26.07,26.07,0,0,1,3.26,1.75,8.48,8.48,0,0,0,1.92,6.63a9.83,9.83,0,0,0,4.22,8,13.39,13.39,0,0,1-4.22-1.17v.19A9.41,9.41,0,0,0,9.39,23a9.55,9.55,0,0,1-2.49.39,5.24,5.24,0,0,1-1.72-.19A9.11,9.11,0,0,0,14,29.82,19,19,0,0,1,2.3,33.91a9.16,9.16,0,0,1-2.3-.2A26.51,26.51,0,0,0,14.38,38c17.44,0,26.83-14.62,26.83-27.28V9.55A20,20,0,0,0,46,4.48" style="fill:#fff;fill-rule:evenodd"/></svg>