<svg xmlns="http://www.w3.org/2000/svg" viewBox="0 0 45.63 33.11"><title>info_google</title><path d="M45.63,20H38.75v6.59H34.09V20H27.23V15.46h6.86V8.83h4.65v6.63h6.89ZM18,18.83l-1.64-1.22a2.37,2.37,0,0,1-1.2-1.86,3.07,3.07,0,0,1,1.29-2.13c1.92-1.43,3.84-3,3.84-6.24s-2.2-5-3.25-5.94h2.83L22.79,0H13.38A12.88,12.88,0,0,0,5.21,2.41,7.64,7.64,0,0,0,2.27,8.23C2.27,11.61,5,15,9.86,15c.46,0,1,0,1.47-.09a3.74,3.74,0,0,0-.46,1.69,4.42,4.42,0,0,0,1.37,2.95c-2.06.13-5.89.35-8.72,2A6.22,6.22,0,0,0,0,26.91c0,3.21,3.19,6.21,9.82,6.21,7.86,0,12-4.12,12-8.2C21.83,21.92,20,20.44,18,18.83Zm-6-5C8.09,13.84,6.29,9,6.29,6.1a4.79,4.79,0,0,1,1-3.2,4.36,4.36,0,0,1,3.2-1.44c3.79,0,5.75,4.86,5.75,8a4.27,4.27,0,0,1-1.13,3.16A4.84,4.84,0,0,1,12,13.84Zm-1,17.46c-4.89,0-8-2.22-8-5.3s2.92-4.12,3.92-4.47a19,19,0,0,1,4.8-.69,7.74,7.74,0,0,1,1.06,0c3.47,2.34,5,3.51,5,5.73C17.77,29.29,15.44,31.29,11.06,31.29Z" style="fill:#fff;fill-rule:evenodd"/></svg>