<svg xmlns="http://www.w3.org/2000/svg" viewBox="0 0 42 40"><title>info_linkedin</title><path d="M5.09,0C2,0,0,2,0,4.6A4.63,4.63,0,0,0,5,9.2H5c3.14,0,5.09-2,5.09-4.6S8.18,0,5.09,0Z" style="fill:#fff;fill-rule:evenodd"/><path d="M31.63,12.2a8.7,8.7,0,0,0-8,4.4l-.05-3.84H14.21L14.27,40h9.39V24.57a5.93,5.93,0,0,1,.3-2.16,4.74,4.74,0,0,1,4.48-3.24c3.26,0,4.22,2.44,4.22,6V40H42V24.18C42,16,37.56,12.2,31.63,12.2Z" style="fill:#fff;fill-rule:evenodd"/><polygon points="0.58 12.76 0.64 39.99 9.9 39.99 9.84 12.76 0.58 12.76" style="fill:#fff;fill-rule:evenodd"/></svg>