<svg xmlns="http://www.w3.org/2000/svg" viewBox="0 0 116 116"><title>instagram_icon</title><rect x="70.3" y="38.67" width="7.03" height="7.03" rx="1.76" ry="1.76" style="fill:#fff"/><path d="M58,48.12a9.81,9.81,0,0,0-5.11,1.46,4.89,4.89,0,0,1,1.46-.24,5.09,5.09,0,1,1-4.76,3.54A9.77,9.77,0,0,0,48.12,58,9.88,9.88,0,1,0,58,48.12Z" style="fill:#fff"/><path d="M58,42.19A15.81,15.81,0,1,0,73.81,58h0A15.83,15.83,0,0,0,58,42.19Zm0,4A11.86,11.86,0,1,1,46.14,58v0A11.86,11.86,0,0,1,58,46.14h0Z" style="fill:#fff"/><path d="M80.3,49.89H67a12.16,12.16,0,1,1-18.09,0H35.7V41.53a5.84,5.84,0,0,1,5.83-5.83H74.47a5.83,5.83,0,0,1,5.83,5.83h0ZM74.47,31.65H41.53a9.88,9.88,0,0,0-9.88,9.88V74.47a9.88,9.88,0,0,0,9.88,9.88H74.47a9.88,9.88,0,0,0,9.88-9.88V41.53A9.88,9.88,0,0,0,74.47,31.65Z" style="fill:#fff"/><circle cx="58" cy="58" r="56" style="fill:none;stroke:#fff;stroke-miterlimit:10;stroke-width:4px"/></svg>