<svg xmlns="http://www.w3.org/2000/svg" viewBox="0 0 200 200"><title>list</title><circle cx="100" cy="100" r="100" style="fill:#fff"/><path d="M79.74,106.82c-.57,16.31-18.69,16-23.19,16.18,0,0,7.75,4.52,14.73,4.2-2.76,5-11.68,10.41-11.68,10.41,9.91,0,32-2.1,32-20.93l-5.22-10.85Z" style="fill:#d45035"/><path d="M131.6,130.53s-7.2.55-7.2-7.2c0-4.85,5.63-7.33,10.8-7.33,4.28,0,10.8,1.35,10.8,10.8,0,12.83-11.7,14.53-15.53,14.53s-16.75-1.93-16.75-18c0-16.78,25.07-21.73,25.07-21.73L98.9,81.18,77.6,62c-7.84,0-17.87,4.45-17.87,16.52A22.92,22.92,0,0,0,67,95.25l18.71,11.39L117,135.27" style="fill:none;stroke:#d45035;stroke-miterlimit:10;stroke-width:4px"/><path d="M110.46,83.84S84.4,87.11,93.1,118.3a109.63,109.63,0,0,0-13.36-11.48s-5.61-25.91,18.43-31a49,49,0,0,0,12.29,8Z" style="fill:#d45035"/></svg>