<svg xmlns="http://www.w3.org/2000/svg" viewBox="0 0 380 43.18"><title>logo-big</title><polygon points="0 8.78 8.6 8.78 8.6 34.44 0 34.44 0 42.34 26.64 42.34 26.64 34.44 18.66 34.44 18.66 8.78 26.66 8.78 26.66 0.88 0 0.88 0 8.78" style="fill:#fff"/><path d="M132.61,1.25,117.81,42.7h10.06l2.25-7,16.11,0,2.37,7h10.06L143.27,1.25Zm.12,26.41,5.33-16.82,5.5,16.82Z" style="fill:#fff"/><path d="M87.34,0H85.56C80.21,0,75.92,1.66,73,4.79,70,1.66,65.54,0,60,0H58.27C47.61,0,41.16,6.57,41.16,18.29v24h9.47V18.88c0-6.39,2.9-10.3,7.64-10.3H60c5,0,8.11,4,8.11,10.3V42.33h9.77V18.88c0-6.39,2.9-10.3,7.64-10.3H87.3c5,0,8.11,4,8.11,10.3V42.33h9.51v-24C104.92,6.57,98.29,0,87.34,0Z" style="fill:#fff"/><polygon points="371.12 0.09 371.12 33.54 352.86 33.54 352.86 0.09 344 0.09 344 42.42 380 42.44 380 0.09 371.12 0.09" style="fill:#fff"/><path d="M330.51,15.45c0-8.58-6.22-14.57-16.28-14.57H286.4V42.33h10.06V30.61H313.4l6.27,11.72h11.49l-7.52-14.09C328,25.63,330.51,21.13,330.51,15.45ZM314.23,22l-17.76,0V9.47h17.76c3.55,0,5.68,2.31,5.68,6.1C319.91,19.66,317.72,22,314.23,22Z" style="fill:#fff"/><path d="M262.85,24.33c0,6.39-2.9,10.3-7.64,10.3h-1.78c-5,0-8.11-4-8.11-10.3V.88h-9.47v24c0,11.72,6.63,18.3,17.58,18.3h1.78c10.66,0,17.11-6.57,17.11-18.3V.88h-9.47Z" style="fill:#fff"/><polygon points="171 42.7 221.1 42.7 221.12 42.7 221.12 19.32 194 19.32 194 26.72 211.44 26.72 211.44 33.87 180.7 33.87 180.7 10.07 221.12 10.07 221.12 1.25 171 1.25 171 42.7" style="fill:#fff"/></svg>