<svg xmlns="http://www.w3.org/2000/svg" viewBox="0 0 119 94"><title>monitor</title><path d="M78.33,14H41.67A1.67,1.67,0,0,0,40,15.67V49H80V15.67A1.67,1.67,0,0,0,78.33,14Z" style="fill:none;stroke:#d45035;stroke-linecap:square;stroke-miterlimit:10;stroke-width:4px"/><path d="M59.48,72.8a2.6,2.6,0,1,1,2.59-2.61h0a2.59,2.59,0,0,1-2.58,2.6ZM113.79,65H5.17v5.2a5.19,5.19,0,0,0,5.17,5.2h98.28a5.19,5.19,0,0,0,5.17-5.2Zm0-54.6a5.19,5.19,0,0,0-5.17-5.2H10.34a5.19,5.19,0,0,0-5.17,5.2V59.8H113.79ZM10.34,80.6A10.37,10.37,0,0,1,0,70.2H0V10.4A10.37,10.37,0,0,1,10.34,0h98.28A10.37,10.37,0,0,1,119,10.36V70.2a10.37,10.37,0,0,1-10.34,10.4H10.34Z" style="fill:#d45035"/><line x1="40" y1="92" x2="80" y2="92" style="fill:none;stroke:#d45035;stroke-linecap:square;stroke-miterlimit:10;stroke-width:4px"/></svg>