<svg xmlns="http://www.w3.org/2000/svg" xmlns:xlink="http://www.w3.org/1999/xlink" viewBox="0 0 138.97 104"><defs><clipPath id="a"><path d="M69.48,82.8a2.6,2.6,0,1,1,2.59-2.6A2.59,2.59,0,0,1,69.48,82.8ZM123.79,75H15.17v5.2a5.19,5.19,0,0,0,5.17,5.2h98.28a5.19,5.19,0,0,0,5.17-5.2Zm0-54.6a5.19,5.19,0,0,0-5.17-5.2H20.34a5.19,5.19,0,0,0-5.17,5.2V69.8H123.79ZM20.34,90.6A10.37,10.37,0,0,1,10,80.2V20.4A10.37,10.37,0,0,1,20.34,10h98.28A10.37,10.37,0,0,1,129,20.4V80.2a10.37,10.37,0,0,1-10.34,10.4Z" style="fill:none;clip-rule:evenodd"/></clipPath></defs><title>monitor</title><path d="M88.33,24H51.67A1.67,1.67,0,0,0,50,25.67V59H90V25.67A1.67,1.67,0,0,0,88.33,24Z" style="fill:none;stroke:#d45035;stroke-linecap:square;stroke-miterlimit:10;stroke-width:4px"/><g style="clip-path:url(#a)"><rect width="138.97" height="100.6" style="fill:#d45035"/></g><line x1="50" y1="102" x2="90" y2="102" style="fill:none;stroke:#d45035;stroke-linecap:square;stroke-miterlimit:10;stroke-width:4px"/></svg>